<svg width="45" height="45" viewBox="0 0 45 45" fill="none" xmlns="http://www.w3.org/2000/svg">
<path d="M0 0H45V45H0V0Z" fill="white" fill-opacity="0.01"/>
<path d="M22.5 18.75C26.1244 18.75 29.0625 15.8119 29.0625 12.1875C29.0625 8.56313 26.1244 5.625 22.5 5.625C18.8756 5.625 15.9375 8.56313 15.9375 12.1875C15.9375 15.8119 18.8756 18.75 22.5 18.75Z" fill="#04C8C8" stroke="black" stroke-width="3" stroke-linecap="round" stroke-linejoin="round"/>
<path d="M5.625 38.25V39.375H39.375V38.25C39.375 34.0496 39.375 31.9494 38.5576 30.3451C37.8385 28.9339 36.6911 27.7865 35.2799 27.0674C33.6756 26.25 31.5754 26.25 27.375 26.25H17.625C13.4246 26.25 11.3244 26.25 9.72009 27.0674C8.30886 27.7865 7.1615 28.9339 6.44245 30.3451C5.625 31.9494 5.625 34.0496 5.625 38.25Z" fill="#04C8C8" stroke="black" stroke-width="3" stroke-linecap="round" stroke-linejoin="round"/>
</svg>
