<svg width="13" height="13" viewBox="0 0 13 13" fill="none" xmlns="http://www.w3.org/2000/svg">
<path d="M6.49967 12.3228C3.28759 12.3228 0.676758 9.712 0.676758 6.49992C0.676758 3.28784 3.28759 0.677002 6.49967 0.677002C9.71176 0.677002 12.3226 3.28784 12.3226 6.49992C12.3226 9.712 9.71176 12.3228 6.49967 12.3228ZM6.49967 1.4895C3.73717 1.4895 1.48926 3.73742 1.48926 6.49992C1.48926 9.26242 3.73717 11.5103 6.49967 11.5103C9.26217 11.5103 11.5101 9.26242 11.5101 6.49992C11.5101 3.73742 9.26217 1.4895 6.49967 1.4895Z" fill="#8D8D8D"/>
<path d="M8.50927 8.6287C8.43885 8.6287 8.36844 8.61245 8.30344 8.56912L6.62427 7.56704C6.20719 7.31787 5.89844 6.77079 5.89844 6.2887V4.06787C5.89844 3.84579 6.0826 3.66162 6.30469 3.66162C6.52677 3.66162 6.71094 3.84579 6.71094 4.06787V6.2887C6.71094 6.4837 6.87344 6.77079 7.04135 6.86829L8.72052 7.87037C8.91552 7.98412 8.9751 8.23329 8.86135 8.42829C8.7801 8.55829 8.64469 8.6287 8.50927 8.6287Z" fill="#8D8D8D"/>
</svg>
